<?xml version="1.0"?>
<svg width="14" height="14" xmlns="http://www.w3.org/2000/svg">
 <g class="layer">
  <title>Layer 1</title>
  <path d="m7,13c3.31,0 6,-2.69 6,-6c0,-3.31 -2.69,-6 -6,-6c-3.31,0 -6,2.69 -6,6c0,3.31 2.69,6 6,6z" fill="#ffffff" id="svg_1" stroke="#F2BE00" stroke-width="2"/>
  <path d="m9,7c0,-1.1 -0.9,-2 -2,-2c-1.1,0 -2,0.9 -2,2c0,1.1 0.9,2 2,2c1.1,0 2,-0.9 2,-2z" id="svg_2" stroke="#F2BE00" stroke-width="4" transform="matrix(1 0 0 1 0 0)"/>
  <rect fill="#ffffff" height="8.39" id="svg_4" stroke="#F2BE00" stroke-width="0" transform="matrix(1 0 0 1 0 0)" width="4.24" x="2.78" y="2.84"/>
  <path d="m7,13c3.31,0 6,-2.69 6,-6c0,-3.31 -2.69,-6 -6,-6c-3.31,0 -6,2.69 -6,6c0,3.31 2.69,6 6,6z" fill="#000000" fill-opacity="0" id="svg_7" stroke="#F2BE00" stroke-width="2"/>
 </g>
</svg>